<svg width="1920" height="1357" viewBox="0 0 1920 1357" fill="none" xmlns="http://www.w3.org/2000/svg">
<g clip-path="url(#clip0_123_624)">
<rect width="1920" height="1357" fill="url(#paint0_linear_123_624)"/>
<circle cx="959.574" cy="678.573" r="1102.16" transform="rotate(-120 959.574 678.573)" fill="url(#paint1_linear_123_624)" fill-opacity="0.7"/>
<circle cx="959.569" cy="678.573" r="761.784" transform="rotate(-105 959.569 678.573)" fill="url(#paint2_linear_123_624)" fill-opacity="0.3"/>
<circle cx="959.571" cy="678.572" r="463.393" transform="rotate(75 959.571 678.572)" fill="url(#paint3_linear_123_624)" fill-opacity="0.7"/>
<path d="M962.238 563.72V553.613C962.238 529.026 982.169 509.094 1006.76 509.094L1018.21 509.094C1036.47 509.094 1051.27 494.291 1051.27 476.031V476.031C1051.27 457.771 1036.47 442.968 1018.21 442.968H891.098C874.048 442.968 860.227 429.147 860.227 412.097V412.097C860.227 395.047 874.048 381.226 891.098 381.226H920.971C952.467 381.226 978 355.693 978 324.197V258.613V136" stroke="url(#paint4_linear_123_624)" stroke-width="11.4059"/>
<g filter="url(#filter0_d_123_624)">
<path d="M615 696.173C615 623.021 674.302 563.719 747.454 563.719H959.638H1171.82C1244.98 563.719 1304.28 623.021 1304.28 696.173C1304.28 792.206 1205.28 856.321 1117.64 817.04L1049.14 786.331C992.2 760.809 927.077 760.809 870.141 786.331L801.633 817.04C714.001 856.321 615 792.206 615 696.173Z" fill="white"/>
</g>
<path fill-rule="evenodd" clip-rule="evenodd" d="M725.634 646.069C722.484 646.069 719.931 648.623 719.931 651.772V682.565H689.14C685.991 682.565 683.438 685.118 683.438 688.268L683.438 707.274C683.437 710.424 685.991 712.977 689.14 712.977H719.931V743.769C719.931 746.919 722.484 749.472 725.634 749.472H744.641C747.79 749.472 750.343 746.919 750.343 743.769V712.977H781.137C784.287 712.977 786.84 710.424 786.84 707.274V688.268C786.84 685.118 784.287 682.565 781.137 682.565H750.343V651.772C750.343 648.623 747.79 646.069 744.641 646.069H725.634Z" fill="url(#paint5_linear_123_624)"/>
<path d="M862.518 605.571C861.32 598.602 866.687 592.234 873.759 592.234H1045.82C1052.89 592.234 1058.26 598.602 1057.06 605.571L1043.87 682.322C1042.93 687.796 1038.18 691.796 1032.63 691.796H886.947C881.393 691.796 876.647 687.796 875.706 682.322L862.518 605.571Z" fill="#D9D9D9"/>
<path d="M1152 697.252C1152 708.531 1142.85 717.673 1131.58 717.673C1120.3 717.673 1111.16 708.531 1111.16 697.252C1111.16 685.974 1120.3 676.832 1131.58 676.832C1142.85 676.832 1152 685.974 1152 697.252Z" fill="#FF6025"/>
<circle cx="1228.89" cy="697.253" r="20.4209" fill="#4199FF"/>
<circle cx="1180.27" cy="648.243" r="20.4209" fill="#FFE153"/>
<circle cx="1180.27" cy="746.262" r="20.4209" fill="#32D06B"/>
<path d="M1088.34 769.025C1088.34 791.072 1070.47 808.945 1048.42 808.945C1026.37 808.945 1008.5 791.072 1008.5 769.025C1008.5 746.978 1026.37 729.104 1048.42 729.104C1070.47 729.104 1088.34 746.978 1088.34 769.025Z" fill="white"/>
<path d="M1076.94 769.025C1076.94 784.773 1064.17 797.54 1048.42 797.54C1032.67 797.54 1019.91 784.773 1019.91 769.025C1019.91 753.277 1032.67 740.51 1048.42 740.51C1064.17 740.51 1076.94 753.277 1076.94 769.025Z" fill="#D9D9D9"/>
<path d="M911.553 769.025C911.553 791.072 893.68 808.945 871.632 808.945C849.585 808.945 831.712 791.072 831.712 769.025C831.712 746.978 849.585 729.104 871.632 729.104C893.68 729.104 911.553 746.978 911.553 769.025Z" fill="white"/>
<path d="M900.146 769.025C900.146 784.773 887.38 797.54 871.632 797.54C855.884 797.54 843.117 784.773 843.117 769.025C843.117 753.277 855.884 740.51 871.632 740.51C887.38 740.51 900.146 753.277 900.146 769.025Z" fill="#D9D9D9"/>
<g filter="url(#filter1_d_123_624)">
<circle cx="305.302" cy="1075.3" r="137.302" fill="url(#paint6_linear_123_624)"/>
<path d="M280.869 1112.73L243.565 1075.43L281.18 1037.81L287.863 1044.5L256.933 1075.43L287.553 1106.05L280.869 1112.73ZM330.296 1113.04L323.613 1106.36L354.544 1075.43L323.924 1044.81L330.607 1038.12L367.911 1075.43L330.296 1113.04Z" fill="white"/>
</g>
<circle cx="1595.52" cy="281.518" r="96.5182" fill="url(#paint7_linear_123_624)"/>
<path d="M1586.03 329.07L1583.71 314.463C1582.25 313.922 1580.7 313.188 1579.08 312.26C1577.45 311.333 1576.02 310.367 1574.79 309.362L1561.11 315.622L1550.33 296.61L1562.85 287.451C1562.69 286.756 1562.6 285.964 1562.56 285.075C1562.52 284.186 1562.5 283.394 1562.5 282.698C1562.5 282.003 1562.52 281.21 1562.56 280.322C1562.6 279.433 1562.69 278.641 1562.85 277.945L1550.33 268.787L1561.11 249.774L1574.79 256.034C1576.02 255.03 1577.45 254.063 1579.08 253.136C1580.7 252.209 1582.25 251.513 1583.71 251.049L1586.03 236.326H1607.36L1609.68 250.933C1611.15 251.474 1612.72 252.189 1614.38 253.078C1616.04 253.967 1617.45 254.952 1618.61 256.034L1632.29 249.774L1643.07 268.787L1630.55 277.713C1630.7 278.486 1630.8 279.317 1630.84 280.206C1630.88 281.095 1630.9 281.925 1630.9 282.698C1630.9 283.471 1630.88 284.283 1630.84 285.133C1630.8 285.983 1630.7 286.794 1630.55 287.567L1643.07 296.61L1632.29 315.622L1618.61 309.362C1617.37 310.367 1615.96 311.352 1614.38 312.318C1612.79 313.285 1611.23 313.999 1609.68 314.463L1607.36 329.07H1586.03ZM1596.7 297.769C1600.87 297.769 1604.43 296.301 1607.36 293.364C1610.3 290.427 1611.77 286.872 1611.77 282.698C1611.77 278.525 1610.3 274.97 1607.36 272.033C1604.43 269.096 1600.87 267.627 1596.7 267.627C1592.52 267.627 1588.97 269.096 1586.03 272.033C1583.1 274.97 1581.63 278.525 1581.63 282.698C1581.63 286.872 1583.1 290.427 1586.03 293.364C1588.97 296.301 1592.52 297.769 1596.7 297.769ZM1596.7 290.813C1594.46 290.813 1592.54 290.021 1590.96 288.437C1589.38 286.852 1588.58 284.94 1588.58 282.698C1588.58 280.457 1589.38 278.544 1590.96 276.96C1592.54 275.375 1594.46 274.583 1596.7 274.583C1598.94 274.583 1600.85 275.375 1602.44 276.96C1604.02 278.544 1604.81 280.457 1604.81 282.698C1604.81 284.94 1604.02 286.852 1602.44 288.437C1600.85 290.021 1598.94 290.813 1596.7 290.813ZM1591.6 322.115H1601.8L1603.42 309.13C1605.97 308.512 1608.39 307.546 1610.67 306.232C1612.95 304.918 1615.02 303.334 1616.87 301.479L1629.16 306.812L1633.8 298.465L1622.9 290.466C1623.21 289.152 1623.46 287.857 1623.65 286.582C1623.85 285.307 1623.94 284.012 1623.94 282.698C1623.94 281.384 1623.86 280.09 1623.71 278.815C1623.56 277.539 1623.28 276.245 1622.9 274.931L1633.8 266.932L1629.16 258.585L1616.87 263.918C1615.09 261.908 1613.08 260.227 1610.84 258.875C1608.6 257.522 1606.13 256.653 1603.42 256.266L1601.8 243.282H1591.6L1589.97 256.266C1587.35 256.807 1584.89 257.735 1582.61 259.048C1580.33 260.362 1578.3 261.985 1576.53 263.918L1564.24 258.585L1559.6 266.932L1570.5 274.931C1570.19 276.245 1569.94 277.539 1569.74 278.815C1569.55 280.09 1569.45 281.384 1569.45 282.698C1569.45 284.012 1569.55 285.307 1569.74 286.582C1569.94 287.857 1570.19 289.152 1570.5 290.466L1559.6 298.465L1564.24 306.812L1576.53 301.479C1578.38 303.334 1580.45 304.918 1582.73 306.232C1585.01 307.546 1587.42 308.512 1589.97 309.13L1591.6 322.115Z" fill="white"/>
</g>
<defs>
<filter id="filter0_d_123_624" x="478.13" y="506.69" width="963.017" height="538.799" filterUnits="userSpaceOnUse" color-interpolation-filters="sRGB">
<feFlood flood-opacity="0" result="BackgroundImageFix"/>
<feColorMatrix in="SourceAlpha" type="matrix" values="0 0 0 0 0 0 0 0 0 0 0 0 0 0 0 0 0 0 127 0" result="hardAlpha"/>
<feOffset dy="79.841"/>
<feGaussianBlur stdDeviation="68.4352"/>
<feComposite in2="hardAlpha" operator="out"/>
<feColorMatrix type="matrix" values="0 0 0 0 0 0 0 0 0 0 0 0 0 0 0 0 0 0 0.07 0"/>
<feBlend mode="normal" in2="BackgroundImageFix" result="effect1_dropShadow_123_624"/>
<feBlend mode="normal" in="SourceGraphic" in2="effect1_dropShadow_123_624" result="shape"/>
</filter>
<filter id="filter1_d_123_624" x="31.1297" y="823.941" width="548.344" height="548.345" filterUnits="userSpaceOnUse" color-interpolation-filters="sRGB">
<feFlood flood-opacity="0" result="BackgroundImageFix"/>
<feColorMatrix in="SourceAlpha" type="matrix" values="0 0 0 0 0 0 0 0 0 0 0 0 0 0 0 0 0 0 127 0" result="hardAlpha"/>
<feOffset dy="22.8117"/>
<feGaussianBlur stdDeviation="68.4352"/>
<feComposite in2="hardAlpha" operator="out"/>
<feColorMatrix type="matrix" values="0 0 0 0 0 0 0 0 0 0 0 0 0 0 0 0 0 0 0.22 0"/>
<feBlend mode="normal" in2="BackgroundImageFix" result="effect1_dropShadow_123_624"/>
<feBlend mode="normal" in="SourceGraphic" in2="effect1_dropShadow_123_624" result="shape"/>
</filter>
<linearGradient id="paint0_linear_123_624" x1="2376" y1="1825.49" x2="-425.548" y2="-843.54" gradientUnits="userSpaceOnUse">
<stop stop-color="#5117C4"/>
<stop offset="0.766426" stop-color="#3D8AFF"/>
</linearGradient>
<linearGradient id="paint1_linear_123_624" x1="2298.73" y1="1454.16" x2="273.312" y2="-499.404" gradientUnits="userSpaceOnUse">
<stop stop-color="white" stop-opacity="0.38"/>
<stop offset="1" stop-color="white" stop-opacity="0"/>
</linearGradient>
<linearGradient id="paint2_linear_123_624" x1="1885.17" y1="1214.64" x2="257.597" y2="-295.775" gradientUnits="userSpaceOnUse">
<stop stop-color="white" stop-opacity="0.38"/>
<stop offset="1" stop-color="white" stop-opacity="0"/>
</linearGradient>
<linearGradient id="paint3_linear_123_624" x1="1522.61" y1="1004.66" x2="671.038" y2="183.301" gradientUnits="userSpaceOnUse">
<stop stop-color="white" stop-opacity="0.38"/>
<stop offset="1" stop-color="white" stop-opacity="0"/>
</linearGradient>
<linearGradient id="paint4_linear_123_624" x1="955.751" y1="136" x2="955.751" y2="563.72" gradientUnits="userSpaceOnUse">
<stop stop-color="white" stop-opacity="0"/>
<stop offset="0.253393" stop-color="white" stop-opacity="0.796875"/>
<stop offset="1" stop-color="white"/>
</linearGradient>
<linearGradient id="paint5_linear_123_624" x1="792.087" y1="742.117" x2="668.821" y2="669.742" gradientUnits="userSpaceOnUse">
<stop stop-color="#3BDF53"/>
<stop offset="0.96875" stop-color="#1AA9A4"/>
</linearGradient>
<linearGradient id="paint6_linear_123_624" x1="456.539" y1="1193.07" x2="129.183" y2="1000.87" gradientUnits="userSpaceOnUse">
<stop stop-color="#3BDF53"/>
<stop offset="0.96875" stop-color="#1AA9A4"/>
</linearGradient>
<linearGradient id="paint7_linear_123_624" x1="1701.83" y1="364.306" x2="1471.71" y2="229.193" gradientUnits="userSpaceOnUse">
<stop stop-color="#3BDF53"/>
<stop offset="0.96875" stop-color="#1AA9A4"/>
</linearGradient>
<clipPath id="clip0_123_624">
<rect width="1920" height="1357" fill="white"/>
</clipPath>
</defs>
</svg>
